# xmcd CD database file
#
# Track frame offsets:
#	150
#	15767
#	32135
#	42584
#	58530
#	72490
#	89336
#	104726
#	119732
#	134456
#	145628
#	164574
#
# Disc length: 2456 seconds
#
# Revision: 6
# Processed by: cddbd v1.5.2PL0 Copyright (c) Steve Scherf et al.
# Submitted via: CDex 1.51
#
DISCID=af09960c
DTITLE=MILIONARIO E JOSÉ RICO - 1996-DE CARA COM A SAUDADE - VOL. 22
DYEAR=1996
DGENRE=Sertanejo
TTITLE0=AMOR DA MINHA VIDA
TTITLE1=MÃE NATUREZA
TTITLE2=AMIGO
TTITLE3=AGUENTA PEÃO
TTITLE4=VELHA CANOA
TTITLE5=IRMÃO
TTITLE6=PAIXÃO ANONIMA
TTITLE7=CASTELO
TTITLE8=CRISE
TTITLE9=EU, VOCÊ E ELA
TTITLE10=DE CARA COM A SAUDADE
TTITLE11=SUBLIME MIRAGEM
EXTD=YEAR: 1996
EXTT0=
EXTT1=
EXTT2=
EXTT3=
EXTT4=
EXTT5=
EXTT6=
EXTT7=
EXTT8=
EXTT9=
EXTT10=
EXTT11=
PLAYORDER=
